<?xml version="1.0" standalone="no"?><!DOCTYPE svg PUBLIC "-//W3C//DTD SVG 1.1//EN" "http://www.w3.org/Graphics/SVG/1.1/DTD/svg11.dtd"><svg t="1755254608321" class="icon" viewBox="0 0 1024 1024" version="1.1" xmlns="http://www.w3.org/2000/svg" p-id="3622" xmlns:xlink="http://www.w3.org/1999/xlink" width="128" height="128"><path d="M414.592 350.976l177.066667 35.413333L42.666667 935.509333v-212.565333l371.925333-371.925333z m491.733333 110.506667A398.506667 398.506667 0 0 1 512 917.717333a396.970667 396.970667 0 0 1-263.509333-99.541333l87.893333-87.893333a274.645333 274.645333 0 0 0 437.76-129.365334l2.986667-10.24 129.194666-129.194666zM981.333333 85.333333v212.522667l-371.925333 371.925333-194.816-17.706666L981.333333 85.333333z m-469.333333 35.413334c101.034667 0 193.28 37.589333 263.509333 99.584l-87.893333 87.893333a274.645333 274.645333 0 0 0-437.76 129.365333l-2.986667 10.24-129.194666 129.237334A398.506667 398.506667 0 0 1 512 120.746667z" fill="#05B69D" p-id="3623"></path></svg>